<?xml version="1.0" encoding="utf-8"?>
<!-- Generator: Adobe Illustrator 28.0.0, SVG Export Plug-In . SVG Version: 6.00 Build 0)  -->
<svg version="1.1" id="Слой_1" xmlns="http://www.w3.org/2000/svg" xmlns:xlink="http://www.w3.org/1999/xlink" x="0px" y="0px"
	 viewBox="0 0 800 800" style="enable-background:new 0 0 800 800;" xml:space="preserve">
<style type="text/css">
	.edit_svg {
		fill-rule: evenodd;
		clip-rule: evenodd;
		fill: #AAAAAA;
		transition: fill .2s;
	}

	svg {
		cursor: pointer;
	}

	svg:hover .edit_svg {
		fill: #fff;
	}
</style>
<path class="edit_svg" d="M672.8,64c-39.1-39.1-77.4-41.8-116.4-2.7L81.4,534c-14,14-24.9,33.2-28.8,52.5L39.8,713.7
	c-9.3,46.6,3.6,59.5,50.2,50.2l120.8-22c19.4-3.9,37.1-13.4,51.1-27.3l472.7-475c39.1-39.1,37.2-76.5-1.8-115.5L672.8,64z
	 M595.2,100.1c13-13,29.2-13.8,42.3-0.7l60.7,59.2c13,13,13.6,32,0.6,45l-98.5,98.5l-105-102L595.2,100.1z M460.1,235.2L121.3,574
	c-4.7,4.7-11.2,18-12.5,24.5L91.2,711.8l106.7-24.3c6.5-1.3,22.3-5.3,27-10L563.3,339L460.1,235.2z"/>
</svg>
