<?xml version="1.0" encoding="utf-8"?>
<!-- Generator: Adobe Illustrator 28.0.0, SVG Export Plug-In . SVG Version: 6.00 Build 0)  -->
<svg version="1.1" id="vector" xmlns="http://www.w3.org/2000/svg" xmlns:xlink="http://www.w3.org/1999/xlink" x="0px" y="0px"
	 viewBox="0 0 505 505" style="enable-background:new 0 0 505 505;" xml:space="preserve">
<style type="text/css">
	.female_sex_icon {
		fill: #FF0000;
	}
</style>
<path class="female_sex_icon" d="M188.9,456.4l39.2-0.1c0.2,7.6,0.3,15.2,0.4,22.8c0.2,14.4,12,26,26.3,25.9c14.3,0,25.7-11.7,25.4-26.1
	c-0.1-7.6-0.3-15.2-0.4-22.8l38.3-0.1c14.3,0,25.7-11.7,25.4-26.1c-0.2-14.4-12-26-26.3-25.9l-38.6,0.1c-0.2-9.3-0.4-18.8-0.6-28.2
	c41.8-5,80.1-23.9,109.7-54.5l0.1-0.1c34.6-35.9,53.1-83.4,52-134c-1.1-50.4-21.6-97.6-57.7-133C346,19,298.6-0.4,248.5,0
	c-51.6,0.4-98,21.9-131.2,56.2S64,137.9,65.1,189.9c1.9,93.5,71.8,170.9,161.3,185c0.2,9.8,0.4,19.6,0.6,29.3l-39,0.1
	c-7.2,0-13.6,3-18.2,7.7c-4.6,4.7-7.3,11.2-7.2,18.3C162.9,444.8,174.7,456.4,188.9,456.4z M116.8,189.6
	c-0.8-37.7,13.8-71.9,37.8-96.9c24.1-24.9,57.6-40.5,95-40.7c36.2-0.3,70.6,13.7,96.8,39.4c13.1,12.8,23.3,27.8,30.4,44.1
	c7.1,16.3,11,34,11.4,52.2c0.8,36.6-12.6,71.1-37.7,97.1l-0.1,0.1c-24.9,25.8-58.5,40.1-94.6,40.3
	C180.7,325.7,118.3,264.8,116.8,189.6z"/>
</svg>
