<?xml version="1.0" encoding="utf-8"?>
<!-- Generator: Adobe Illustrator 28.0.0, SVG Export Plug-In . SVG Version: 6.00 Build 0)  -->
<svg version="1.1" id="vector" xmlns="http://www.w3.org/2000/svg" xmlns:xlink="http://www.w3.org/1999/xlink" x="0px" y="0px"
	 viewBox="0 0 505 505" style="enable-background:new 0 0 505 505;" xml:space="preserve">
<style type="text/css">
	.st0 {
		fill: url(#hermaphrodite_icon_gradient);
	}
</style>
<linearGradient id="hermaphrodite_icon_gradient" gradientUnits="userSpaceOnUse" x1="252.5" y1="1.3" x2="252.5" y2="506" gradientTransform="matrix(1 0 0 -1 0 506)">
	<stop  offset="0" style="stop-color: #FF0000"/>
	<stop  offset="1" style="stop-color: #0000FF"/>
</linearGradient>
<path class="hermaphrodite_sex_icon" d="M460.1,88.9l-27.6-25
	c5.3-4.7,10.7-9.5,16-14.2c10.2-9,10.2-23.6,0.1-32.7c-10-9.1-26.3-9.1-36.4-0.1c-5.3,4.7-10.7,9.5-16,14.2L369.3,6.8
	c-10-9-26.3-9.1-36.4-0.1c-10,9-10.2,23.6-0.1,32.7l27,24.5c-6.6,5.9-13.1,11.8-19.7,17.7c-32.8-23.6-73.3-36.3-115.8-36.3h-0.4
	c-24.9,0-49.1,4.4-71.3,12.7s-42.9,20.6-60.5,36.4c-72.8,65.3-72.8,171.7,0,237.2c30.1,27.1,68,42.9,107.1,47.5
	c0,11.9,0,23.9,0,35.7l-38.5-0.1h-0.1c-14.2,0-25.8,10.3-25.8,23s11.5,23.1,25.6,23.2l38.8,0.1c0,6.7,0,13.5,0,20.2
	c-0.1,12.7,11.5,23.1,25.6,23.2h0.1c14.2,0,25.6-10.3,25.8-23c0-6.7,0-13.4,0-20.2l38.5,0.1h0.1c14.2,0,25.8-10.3,25.8-23
	s-11.5-23.1-25.6-23.2l-38.8-0.1c0-11.9,0-24.1,0-36.1c38.5-5,75.7-20.7,105.3-47.3c65.5-58.9,72-150.9,19.4-216.6
	c6.8-6.1,13.6-12.3,20.5-18.4l27.4,24.7c5,4.5,11.7,6.8,18.3,6.8s13.1-2.2,18.2-6.7C470,112.6,470,98.1,460.1,88.9z M319.7,299
	c-26.4,23.7-61,35.5-95.5,35.5c-34.6,0-69.3-11.8-95.5-35.5c-52.7-47.3-52.7-124.4,0-171.7c25.6-23,59.5-35.6,95.5-35.7h0.3
	c35.9,0,69.7,12.6,95.2,35.4C372.3,174.4,372.5,251.7,319.7,299z"/>
</svg>