<?xml version="1.0" encoding="utf-8"?>
<!-- Generator: Adobe Illustrator 28.0.0, SVG Export Plug-In . SVG Version: 6.00 Build 0)  -->
<svg version="1.1" id="vector" xmlns="http://www.w3.org/2000/svg" xmlns:xlink="http://www.w3.org/1999/xlink" x="0px" y="0px"
	 viewBox="0 0 505 505" style="enable-background:new 0 0 505 505;" xml:space="preserve">
<style type="text/css">
	.st0{fill:#0000FF;}
</style>
<path class="st0" d="M459.2,134.9l-27.8-27.6c5.2-5.5,10.5-11,15.8-16.4c10-10.3,9.9-26.9-0.3-36.9c-10.1-10.1-26.4-9.9-36.4,0.5
	c-5.3,5.4-10.5,11-15.8,16.4l-27.2-27c-10.1-10.1-26.4-9.9-36.4,0.5c-10,10.3-9.9,26.9,0.3,36.9l27.4,27.2
	c-6.4,6.7-13,13.6-19.5,20.4c-33.1-26-73.5-39.7-116.1-39H223c-49.9,0.9-96.5,21.4-131.5,58c-34.9,36.4-53.7,84.3-53.2,134.8
	c0.6,50.5,20.4,97.7,56.1,132.9c36.8,36.2,84.8,53.8,132.5,53c47.7-0.8,95.5-20.1,131.5-57.6c64.8-67.5,70.1-171.6,16.8-244.9
	c6.8-7.1,13.6-14.1,20.3-21.1l27.6,27.5c5.1,5.1,11.7,7.5,18.3,7.4c6.6-0.1,13.1-2.8,18-7.8C469.4,161.5,469.2,145,459.2,134.9z
	 M321.5,374.6c-26.1,27.2-60.6,41.1-95.2,41.8c-34.6,0.6-69.4-12.1-96-38.4c-25.8-25.4-40.2-59.6-40.6-96.3
	c-0.2-18.3,3.2-36.1,9.7-52.7c6.5-16.5,16.3-31.8,28.8-45c25.3-26.4,59.2-41.4,95.3-42h0.1c35.9-0.6,69.7,13,95.4,38.4
	C372.6,233.2,373.6,320.3,321.5,374.6z"/>
</svg>
