<svg version="1.1" id="layer1" xmlns="http://www.w3.org/2000/svg" xmlns:xlink="http://www.w3.org/1999/xlink" x="0px" y="0px"
	 viewBox="0 0 512 512" style="enable-background:new 0 0 512 512;" xml:space="preserve">
	<style type="text/css">
		.st0 {
			fill: #AAAAAA;
			transition: fill .2s;
		}

		svg {
			cursor: pointer;
		}

		svg:hover .st0 {
			fill: #fff;
		}
	</style>
	<path class="st0" d="M256.4,402.9c-97.4,0-187.6-44.5-231.4-114.8c-14.6-23.3-14.9-52.4-0.7-75.9c20.5-33.8,52.1-62.5,91.4-83.1
		c39.3-20.6,84.8-32.2,131.4-33.5c100.6-2.8,194.8,42.3,240,114.8c14.6,23.4,14.9,52.4,0.7,75.9c-20.5,33.7-52.1,62.4-91.4,83
		c-39.3,20.6-84.8,32.1-131.4,33.5C262.1,402.9,259.2,402.9,256.4,402.9z M256,118.5c-2.7,0-5.5,0-8.2,0.1
		C161.3,121,81.3,162.4,43.9,224.1c-9.7,16-9.5,35.9,0.5,51.8c39.8,63.7,122.3,104,211.9,104c2.7,0,5.3,0,8-0.1
		c86.4-2.4,166.4-43.8,203.8-105.4c9.7-16,9.5-35.9-0.5-51.8l0,0C427.8,158.8,345.4,118.5,256,118.5z"/>
	<path class="st0" d="M256,342.5c-47.7,0-86.5-38.8-86.5-86.5s38.8-86.5,86.5-86.5s86.5,38.8,86.5,86.5S303.7,342.5,256,342.5z
		 M256,192.5c-35,0-63.5,28.5-63.5,63.5c0,35,28.5,63.5,63.5,63.5c35,0,63.5-28.5,63.5-63.5C319.5,221,291,192.5,256,192.5z"/>
</svg>
